<svg xmlns="http://www.w3.org/2000/svg" viewBox="0 0 340 220" role="img" aria-label=""><title></title><rect x="10" y="20" width="320" height="190" rx="18" fill="#ffffff" opacity=".12"/><line x1="10" y1="20" x2="10" y2="210" stroke="#fff" stroke-opacity=".25" stroke-width="2"/><line x1="90" y1="20" x2="90" y2="210" stroke="#fff" stroke-opacity=".25" stroke-width="2"/><line x1="170" y1="20" x2="170" y2="210" stroke="#fff" stroke-opacity=".25" stroke-width="2"/><line x1="250" y1="20" x2="250" y2="210" stroke="#fff" stroke-opacity=".25" stroke-width="2"/><line x1="330" y1="20" x2="330" y2="210" stroke="#fff" stroke-opacity=".25" stroke-width="2"/><line x1="10" y1="50" x2="330" y2="50" stroke="#fff" stroke-opacity=".25" stroke-width="2"/><line x1="10" y1="130" x2="330" y2="130" stroke="#fff" stroke-opacity=".25" stroke-width="2"/><line x1="10" y1="210" x2="330" y2="210" stroke="#fff" stroke-opacity=".25" stroke-width="2"/><rect x="90" y="50" width="160" height="130" fill="none" stroke="#ffd166" stroke-width="4" stroke-dasharray="10 8" rx="4"/><g transform="translate(90 150) rotate(0)"><rect x="-30" y="-36" width="60" height="72" rx="14" fill="#fff" stroke="#14202b" stroke-width="3"/><rect x="-42" y="-14" width="12" height="30" rx="4" fill="#14202b"/><rect x="30" y="-14" width="12" height="30" rx="4" fill="#14202b"/><rect x="-16" y="-14" width="32" height="26" rx="4" fill="#1f2a36"/><circle cx="-12" cy="-28" r="4" fill="#ff5a4f"/><circle cx="12" cy="-28" r="4" fill="#ff5a4f"/><path d="M0 -44 l-6 8 h12 z" fill="#ffd166"/></g></svg>